<svg xmlns="http://www.w3.org/2000/svg" enable-background="new 0 0 25 25" viewBox="0 0 25 25"><path fill="#583689" d="M12.568,25c-5.114,0-9.881-3.056-11.944-7.695c-0.01-0.022-0.02-0.047-0.029-0.073l0,0c-0.222-0.518-0.403-1.025-0.556-1.553c-0.106-0.369,0.008-0.766,0.293-1.021c1.489-1.335,3.086-2.012,4.746-2.012c0.527,0,1.021,0.07,1.474,0.182c-0.267-0.327-0.571-0.661-0.925-1.016c-0.194-0.196-0.3-0.463-0.29-0.739c0.009-0.276,0.132-0.536,0.34-0.718c1.291-1.132,2.7-2.05,4.31-2.805c0.713-0.333,1.503-0.703,2.331-0.914c0.171-0.043,0.352-0.041,0.52,0.007c1.769,0.5,3.608,1.426,5.319,2.678c0.039,0.029,0.077,0.061,0.112,0.096c0.36,0.261,0.779,0.602,1.175,0.958c0.202,0.182,0.321,0.438,0.33,0.708c0.01,0.271-0.092,0.535-0.28,0.73c-0.137,0.141-0.267,0.278-0.39,0.414c1.852,0.113,4.856,2.247,5.487,2.709c0.359,0.263,0.501,0.731,0.349,1.149l-0.075,0.21c-0.064,0.182-0.13,0.366-0.202,0.544c-1.879,4.723-6.591,8.002-11.723,8.154C12.816,24.998,12.691,25,12.568,25z M2.453,16.494c1.787,4.017,5.936,6.621,10.428,6.501c4.338-0.128,8.319-2.892,9.916-6.878c-1.812-1.238-3.412-1.92-3.825-1.897c-0.007,0.001-0.015,0.003-0.021,0.004c-0.295,0.097-0.99,0.788-1.455,1.251c-0.25,0.249-0.513,0.51-0.789,0.771c-0.328,0.309-0.822,0.36-1.206,0.127c-0.385-0.234-0.565-0.697-0.442-1.129c0.418-1.461,1.098-2.68,2.271-4.032c-0.104-0.081-0.209-0.16-0.315-0.238c-0.039-0.029-0.076-0.061-0.111-0.095c-1.365-0.996-2.883-1.781-4.345-2.234c-0.566,0.175-1.146,0.446-1.708,0.709c-1.121,0.526-2.126,1.134-3.055,1.848c1.034,1.182,1.659,2.286,2.077,3.631l0.007,0.02c0.144,0.333,0.11,0.733-0.126,1.028c-0.331,0.411-0.904,0.515-1.335,0.21c-0.046-0.032-0.142-0.105-0.182-0.145c-0.054-0.053-1.334-1.301-3.158-1.301c-0.983,0-1.964,0.368-2.92,1.095c0.082,0.234,0.174,0.468,0.274,0.703C2.44,16.46,2.446,16.478,2.453,16.494z"/><path fill="#583689" d="M12.569,18.256c-0.037,0-0.075-0.002-0.112-0.007c-0.066-0.008-0.147-0.025-0.226-0.048v0.001c-0.411-0.117-0.699-0.481-0.724-0.903l-0.471-3.222l-0.128-2.641c-0.005-0.103,0.007-0.205,0.033-0.304l0.646-2.426c0.117-0.441,0.482-0.731,0.976-0.743c0.457,0.004,0.853,0.318,0.961,0.762l0.595,2.423c0.024,0.096,0.033,0.195,0.027,0.294l-0.143,2.559l-0.436,3.355c-0.028,0.244-0.145,0.476-0.329,0.639C13.054,18.161,12.814,18.256,12.569,18.256z"/><path fill="#DE002A" d="M17.75,8.784c-0.165,0-0.328-0.055-0.461-0.159c-1.867-1.326-4.134-2.023-4.79-2.207c-0.734,0.215-3.417,1.054-4.771,2.17c-0.225,0.185-0.533,0.224-0.798,0.1C6.668,8.564,6.5,8.3,6.5,8.01V5.523c0-1.573,5.979-1.893,6.04-1.893c0.06,0,5.96,0.291,5.96,1.893v2.511c0,0.303-0.183,0.577-0.463,0.693C17.944,8.765,17.847,8.784,17.75,8.784z M13.632,5.195c0.833,0.273,2.1,0.752,3.368,1.473V5.913C16.413,5.688,14.97,5.338,13.632,5.195z M8,5.921v0.693c1.146-0.637,2.471-1.123,3.345-1.409C10.013,5.356,8.591,5.699,8,5.921z"/><path fill="#DE002A" d="M10.25,5.376c-0.17,0-0.337-0.058-0.472-0.167C9.603,5.067,9.5,4.853,9.5,4.626V1.981c0-1.393,2.988-1.48,3.019-1.48V0.5c0.63,0,2.981,0.253,2.981,1.492v2.624c0,0.221-0.098,0.43-0.266,0.573c-0.168,0.142-0.386,0.204-0.609,0.167c-0.013-0.002-1.321-0.221-2.103-0.239c-0.717,0.014-1.414,0.094-2.115,0.244C10.355,5.371,10.303,5.376,10.25,5.376z M12.514,3.616c0.459,0.01,1.024,0.071,1.486,0.131V2.291C13.7,2.161,13.076,2,12.52,2C11.951,2,11.312,2.162,11,2.293v1.44C11.496,3.664,11.996,3.625,12.514,3.616z"/></svg>